<svg width="40" height="40" viewBox="0 0 32 32" fill="none" xmlns="http://www.w3.org/2000/svg">
<path d="M22.2165 7.25109L21.7114 7.75609C21.3767 8.09081 21.3767 8.63352 21.7114 8.96831L27.7062 14.9286H0.857144C0.383786 14.9286 0 15.3124 0 15.7857V16.5C0 16.9734 0.383786 17.3572 0.857144 17.3572H27.7062L21.7114 23.3175C21.3767 23.6522 21.3767 24.1949 21.7114 24.5297L22.2165 25.0347C22.5512 25.3694 23.0939 25.3694 23.4286 25.0347L31.749 16.749C32.0837 16.4142 32.0837 15.8715 31.749 15.5367L23.4286 7.25109C23.0939 6.9163 22.5512 6.9163 22.2165 7.25109Z" fill="white"/>
</svg>
